# xmcd
#
# Track frame offsets: 
#        150
#        16172
#        31528
#        45704
#        61036
#        74913
#        87973
#        98504
#        113453
#        128581
#        146948
#        161156
#        176789
#        189665
#        204588
#        218963
#        234667
#        258163
#        279004
#        297591
#        315744
#        334538
#
# Disc length: 4682 seconds
#
# Revision: 0
# Processed by: cddbd v1.5.2PL0 Copyright (c) Steve Scherf et al.
# Submitted via: ExactAudioCopy v0.99pb5
#
DISCID=3c124816
DTITLE=Various Artist - Блатной хит №5
DYEAR=2010
DGENRE=Chanson
TTITLE0=Трофим - Все не важно
TTITLE1=С.Михайлов - Два сердца
TTITLE2=Карабас Барабас - В золоте икона
TTITLE3=И.Круг - Дом на горе
TTITLE4=А.Полотно и Ф.Карманов - Камчатка
TTITLE5=М.Бородин - Бродяга
TTITLE6=Весна - Рогалики
TTITLE7=А.Бандера - Сыпь тальянка
TTITLE8=Лесоповал - Птичка синяя
TTITLE9=А.Брянцев - Мне не хватает твоих глаз
TTITLE10=В.Захаров и А.Воробей - Встреча
TTITLE11=Е.Росс - Прости мою любовь
TTITLE12=Артур - Спасибо Вам
TTITLE13=М.Шуфутинский - До свидания
TTITLE14=В.Курас - Самолетик
TTITLE15=Рада Рай - Радуюсь
TTITLE16=О.Алябин - На качелях
TTITLE17=Бумер - Судьба
TTITLE18=В.Королев и И.Круг - Качают небо золотые купола
TTITLE19=А.Звинцов - Стая голубей
TTITLE20=Г.Кричевский - Сизари
TTITLE21=А.Шевченко - Подумать о тебе
EXTD=
EXTT0=
EXTT1=
EXTT2=
EXTT3=
EXTT4=
EXTT5=
EXTT6=
EXTT7=
EXTT8=
EXTT9=
EXTT10=
EXTT11=
EXTT12=
EXTT13=
EXTT14=
EXTT15=
EXTT16=
EXTT17=
EXTT18=
EXTT19=
EXTT20=
EXTT21=
PLAYORDER=
